<?xml version="1.0" encoding="UTF-8"?>
<svg width="42px" height="44px" viewBox="0 0 42 44" version="1.1" xmlns="http://www.w3.org/2000/svg" xmlns:xlink="http://www.w3.org/1999/xlink">
    <!-- Generator: Sketch 42 (36781) - http://www.bohemiancoding.com/sketch -->
    <title>logo-icon</title>
    <desc>Created with Sketch.</desc>
    <defs>
        <polygon id="path-1" points="0.06 0.868 0.06 43.001 41.094 43.001 41.094 0.868 0.06 0.868"></polygon>
    </defs>
    <g id="Page-1" stroke="none" stroke-width="1" fill="none" fill-rule="evenodd">
        <g id="logo-icon">
            <g id="Icon">
                <path d="M24.836,16.45 C24.836,17.126 24.949,17.239 27.648,17.63 C28.266,17.688 28.941,17.802 29.73,17.911 C31.359,18.192 32.484,19.149 33.105,20.614 C33.555,21.739 33.555,22.864 33.5,23.595 C33.5,23.931 33.328,25.169 32.879,25.731 L32.766,25.845 L32.598,25.958 C31.078,26.856 30.066,26.743 29.504,26.63 C28.828,27.868 28.828,30.399 29.055,31.806 C29.109,32.313 28.773,32.763 28.266,32.817 L28.156,32.817 C27.703,32.817 27.312,32.481 27.254,32.032 C27.199,31.524 26.691,27.192 28.324,25.169 L28.438,25.056 L28.547,25.001 C28.941,24.774 29.391,24.833 29.672,24.888 C30.066,24.942 30.574,25.056 31.473,24.552 C31.641,24.044 31.922,22.356 31.305,21.063 C30.91,20.274 30.293,19.825 29.391,19.657 C28.66,19.544 27.984,19.431 27.367,19.376 C26.074,19.208 25.117,19.095 24.441,18.755 C24.387,18.755 24.387,18.7 24.328,18.7 C23.938,19.88 23.148,21.118 21.574,21.345 C21.066,21.399 20.617,21.063 20.562,20.614 C20.504,20.106 20.844,19.657 21.293,19.598 C22.418,19.431 22.754,17.97 22.922,16.731 C22.98,16.337 23.035,15.833 23.598,15.606 C23.938,15.493 24.273,15.606 24.555,15.833 L24.781,16.056 L24.836,16.45 Z" id="Fill-2" fill="#FA9600"></path>
                <path d="M18.93,16.618 C19.211,16.899 19.211,17.407 18.93,17.743 C18.93,17.743 16.398,20.052 14.43,20.052 L14.375,20.052 C13.754,20.052 13.25,19.825 12.91,19.376 C12.18,18.532 9.762,18.755 8.691,18.981 C8.242,19.095 7.848,18.813 7.734,18.364 C7.625,17.911 7.906,17.52 8.355,17.407 C8.805,17.294 12.574,16.505 14.094,18.251 C14.148,18.306 14.262,18.364 14.43,18.364 C15.5,18.419 17.469,16.899 17.859,16.505 C18.141,16.337 18.648,16.337 18.93,16.618 Z" id="Fill-3" fill="#FA9600"></path>
                <g id="Group-7">
                    <mask id="mask-2" fill="white">
                        <use xlink:href="#path-1"></use>
                    </mask>
                    <g id="Clip-5"></g>
                    <path d="M11.562,9.138 C12.461,10.77 12.461,12.739 11.672,14.368 C11.562,14.595 11.336,14.763 11.109,14.817 L11,14.817 C10.773,14.817 10.605,14.763 10.438,14.595 C9.422,13.692 7.566,14.2 7.004,14.427 C6.555,14.595 6.16,14.368 5.992,13.919 C5.824,13.47 6.047,13.075 6.5,12.907 C7.285,12.626 9.086,12.177 10.547,12.794 C10.828,11.782 10.66,10.77 10.156,9.868 C9.93,9.473 10.098,9.024 10.492,8.802 C10.828,8.63 11.336,8.802 11.562,9.138 Z" id="Fill-4" fill="#FA9600" mask="url(#mask-2)"></path>
                    <path d="M32.375,33.942 L32.375,40.638 L32.035,40.806 C31.586,41.032 31.191,41.145 30.797,41.313 L30.797,41.427 C30.797,42.27 29.617,43.001 28.098,43.001 C26.637,43.001 25.398,42.325 25.398,41.427 C25.398,41.427 25.398,41.427 25.398,41.368 C24.555,41.087 24.105,40.751 24.047,40.751 L23.766,40.583 L23.766,28.095 C23.766,27.192 23.766,27.192 22.754,27.192 C22.191,27.192 21.574,27.138 20.898,26.911 C19.492,26.407 18.875,25.899 18.312,25.282 C17.523,25.845 16.625,26.462 14.824,26.348 C13.023,26.181 12.18,25.395 11.449,24.661 C11.391,24.606 11.336,24.552 11.281,24.493 C10.492,24.888 9.254,25.223 7.906,25.223 C7.285,25.223 6.609,25.169 5.992,25.001 C2,24.044 -0.309,20.556 0.031,16.114 C0.367,12.458 2.109,9.755 4.641,8.911 C4.812,7.731 5.375,6.552 6.328,5.595 C7.793,4.13 9.875,3.399 11.504,3.848 C12.855,2.161 14.879,1.149 17.074,1.149 C18.086,1.149 19.043,1.376 19.941,1.77 C21.012,1.208 22.191,0.868 23.43,0.868 C25.062,0.868 26.637,1.431 27.875,2.501 C30.969,1.938 34.004,3.513 35.355,6.27 C38.168,7.282 40.023,9.927 40.023,12.907 C40.023,13.411 39.969,13.864 39.855,14.368 C40.641,15.552 41.094,16.899 41.094,18.306 C41.094,19.993 40.531,21.626 39.406,22.919 C39.234,25.618 38.109,27.306 35.805,28.317 L35.242,28.598 C33.16,29.669 32.711,31.411 32.316,33.72 C32.43,33.833 32.43,33.888 32.375,33.942 Z M26.242,40.356 C27.141,40.583 28.379,40.692 29.898,40.302 C30.293,40.188 30.742,40.075 31.191,39.848 L31.191,38.501 C29.953,38.895 28.887,39.063 27.93,39.063 C26.691,39.063 25.68,38.837 25.062,38.614 L25.062,39.907 C25.285,40.02 25.68,40.188 26.242,40.356 Z M26.578,38.161 C27.594,38.333 29.223,38.388 31.191,37.712 L31.191,37.036 C29.953,37.431 28.887,37.544 27.93,37.544 C26.691,37.544 25.68,37.317 25.062,37.095 L25.062,37.712 C25.398,37.88 25.906,38.052 26.578,38.161 Z M26.578,36.7 C27.594,36.868 29.223,36.927 31.191,36.251 L31.191,35.575 L25.117,35.575 L25.117,36.306 C25.398,36.419 25.906,36.587 26.578,36.7 Z M23.035,25.505 C24.047,25.563 25.625,25.618 25.625,28.036 L25.625,34.001 L30.797,34.001 C31.25,31.188 31.699,28.598 34.734,27.024 C34.734,27.024 34.793,27.024 34.793,26.97 L35.355,26.688 C37.156,25.899 37.941,24.661 38,22.411 C38,22.188 38.109,22.02 38.223,21.848 C39.18,20.837 39.742,19.489 39.742,18.083 C39.742,16.899 39.348,15.72 38.617,14.763 C38.449,14.536 38.391,14.313 38.449,14.087 C38.562,13.583 38.617,13.13 38.617,12.626 C38.617,10.208 37.043,8.126 34.734,7.45 C34.512,7.395 34.285,7.223 34.23,7.001 C33.387,5.032 31.418,3.794 29.281,3.794 C28.828,3.794 28.438,3.848 27.984,3.962 C27.703,4.02 27.422,3.962 27.254,3.739 C26.355,2.895 25.004,2.388 23.656,2.388 C22.586,2.388 21.574,2.723 20.672,3.286 C20.391,3.458 20.109,3.458 19.887,3.345 C19.098,2.895 18.199,2.723 17.297,2.723 C15.5,2.723 13.812,3.626 12.797,5.087 C12.629,5.313 12.348,5.481 12.125,5.427 L11.898,5.427 C11.785,5.427 11.617,5.427 11.449,5.368 C11.223,5.313 10.941,5.255 10.773,5.255 C9.762,5.255 8.578,5.817 7.734,6.661 C6.949,7.45 6.441,8.462 6.441,9.532 C6.441,9.927 6.16,10.208 5.824,10.317 C3.742,10.77 2.168,13.075 1.887,16.282 C1.605,19.095 2.73,22.524 6.609,23.481 C7.117,23.595 7.625,23.649 8.188,23.649 C9.594,23.649 10.719,23.2 11.223,22.864 C11.562,22.638 11.898,22.692 12.18,22.919 C12.461,23.145 12.688,23.368 12.855,23.536 C13.473,24.157 13.922,24.606 15.219,24.72 C16.453,24.833 16.961,24.438 17.75,23.876 C17.918,23.763 18.086,23.595 18.254,23.481 C18.594,23.255 19.043,23.313 19.324,23.595 L19.547,23.876 C20.109,24.493 20.449,24.942 21.688,25.395 C22.078,25.45 22.531,25.45 23.035,25.505 Z" id="Fill-6" fill="#FA9600" mask="url(#mask-2)"></path>
                </g>
                <path d="M18.141,10.036 C15.836,10.036 14.43,8.688 14.375,8.63 C14.094,8.348 14.094,7.899 14.375,7.618 C14.656,7.337 15.105,7.337 15.387,7.618 C15.5,7.677 17.355,9.473 20.336,8.126 C21.742,7.505 21.688,6.72 21.688,5.817 C21.688,5.255 21.629,4.692 22.137,4.302 C22.641,3.907 23.262,4.02 23.879,4.188 C24.273,4.302 24.5,4.692 24.387,5.087 C24.273,5.481 23.879,5.708 23.484,5.595 C23.316,5.536 23.203,5.536 23.148,5.536 L23.148,5.817 C23.203,6.774 23.262,8.462 20.953,9.532 C19.887,9.868 18.984,10.036 18.141,10.036 Z" id="Fill-8" fill="#FA9600"></path>
                <path d="M29.672,11.837 C29.562,11.837 29.391,11.782 29.281,11.723 C29.055,11.614 28.773,11.274 28.887,10.657 C28.941,10.263 27.816,9.083 26.578,8.239 C26.242,8.013 26.188,7.563 26.355,7.223 C26.578,6.888 27.031,6.833 27.367,7.001 C27.984,7.395 29.617,8.575 30.125,9.813 C30.797,9.192 31.586,8.52 32.375,8.52 C32.766,8.52 33.105,8.856 33.105,9.251 C33.105,9.645 32.766,9.981 32.375,9.981 C32.094,9.981 31.359,10.657 31.023,10.993 C30.516,11.442 30.125,11.837 29.672,11.837 Z" id="Fill-9" fill="#FA9600"></path>
                <path d="M36.422,19.598 C36.312,19.598 36.199,19.544 36.086,19.489 C35.75,19.317 35.637,18.868 35.805,18.532 C35.859,18.251 35.469,17.348 35.242,16.786 C34.734,15.552 34.285,14.481 34.793,13.751 C35.016,13.411 35.469,13.356 35.805,13.583 C36.141,13.806 36.199,14.2 36.031,14.536 C36.031,14.817 36.367,15.72 36.594,16.223 C37.098,17.407 37.492,18.419 37.098,19.149 C36.93,19.431 36.703,19.598 36.422,19.598 Z" id="Fill-10" fill="#FA9600"></path>
                <path d="M26.973,13.864 L26.805,13.864 C25.793,13.638 25.117,12.848 24.668,12.118 C24.328,12.681 23.598,13.243 22.191,13.638 C21.066,13.919 19.941,13.919 19.887,13.919 C19.492,13.919 19.156,13.583 19.156,13.188 C19.156,12.794 19.492,12.458 19.887,12.458 C21.012,12.458 23.43,12.118 23.484,11.052 C23.543,10.657 23.598,9.927 24.219,9.813 C24.836,9.645 25.172,10.208 25.512,10.77 C25.848,11.333 26.41,12.345 27.086,12.458 C27.48,12.513 27.703,12.907 27.648,13.302 C27.648,13.638 27.312,13.864 26.973,13.864 Z" id="Fill-11" fill="#FA9600"></path>
            </g>
        </g>
    </g>
</svg>