<?xml version="1.0" encoding="UTF-8"?>
<svg width="154px" height="44px" viewBox="0 0 154 44" version="1.1" xmlns="http://www.w3.org/2000/svg" xmlns:xlink="http://www.w3.org/1999/xlink">
    <!-- Generator: Sketch 42 (36781) - http://www.bohemiancoding.com/sketch -->
    <title>logo-text</title>
    <desc>Created with Sketch.</desc>
    <defs></defs>
    <g id="Page-1" stroke="none" stroke-width="1" fill="none" fill-rule="evenodd">
        <g id="logo-text" fill="#FA9600">
            <path d="M13.437,11.18 L13.437,12.727 L7.609,12.727 L7.609,29.371 L5.828,29.371 L5.828,12.727 L0,12.727 L0,11.18 L13.437,11.18 Z M15.035,29.371 L15.035,9.316 L16.742,9 L16.742,16.191 C17.301,15.981 17.871,15.82 18.449,15.707 C19.027,15.594 19.605,15.535 20.179,15.535 C21.23,15.535 22.105,15.684 22.804,15.981 C23.508,16.281 24.066,16.703 24.484,17.254 C24.906,17.809 25.199,18.469 25.367,19.238 C25.531,20.008 25.613,20.856 25.613,21.785 L25.613,29.371 L23.91,29.371 L23.91,22.336 C23.91,21.371 23.844,20.559 23.711,19.895 C23.582,19.231 23.363,18.688 23.054,18.266 C22.75,17.848 22.344,17.543 21.836,17.359 C21.328,17.176 20.687,17.086 19.918,17.086 C19.621,17.086 19.301,17.109 18.961,17.164 C18.621,17.215 18.301,17.274 18.004,17.336 C17.703,17.395 17.437,17.461 17.203,17.531 C16.965,17.602 16.812,17.652 16.742,17.688 L16.742,29.371 L15.035,29.371 Z M28.027,22.57 C28.027,21.383 28.195,20.344 28.539,19.461 C28.879,18.578 29.324,17.836 29.875,17.242 C30.429,16.648 31.058,16.207 31.765,15.918 C32.476,15.629 33.207,15.484 33.957,15.484 C35.621,15.484 36.945,16.027 37.933,17.109 C38.926,18.195 39.418,19.867 39.418,22.125 C39.418,22.266 39.414,22.406 39.406,22.543 C39.398,22.684 39.383,22.816 39.367,22.938 L29.836,22.938 C29.89,24.602 30.301,25.879 31.07,26.77 C31.84,27.664 33.066,28.109 34.746,28.109 C35.672,28.109 36.41,28.024 36.949,27.848 C37.492,27.672 37.886,27.524 38.133,27.402 L38.445,28.871 C38.203,29.012 37.742,29.176 37.07,29.371 C36.394,29.563 35.601,29.66 34.695,29.66 C33.504,29.66 32.488,29.484 31.648,29.133 C30.808,28.785 30.117,28.293 29.574,27.664 C29.031,27.035 28.636,26.285 28.394,25.418 C28.148,24.555 28.027,23.606 28.027,22.57 Z M37.66,21.496 C37.625,20.078 37.293,18.977 36.664,18.188 C36.031,17.398 35.14,17.008 33.984,17.008 C33.371,17.008 32.824,17.129 32.344,17.375 C31.863,17.617 31.441,17.945 31.086,18.359 C30.726,18.77 30.445,19.246 30.242,19.789 C30.043,20.332 29.926,20.898 29.89,21.496 L37.66,21.496 Z M61.488,20.262 C61.488,21.82 61.242,23.176 60.75,24.328 C60.261,25.484 59.574,26.449 58.691,27.219 C57.808,27.988 56.754,28.566 55.527,28.949 C54.304,29.336 52.957,29.527 51.484,29.527 C50.75,29.527 49.98,29.488 49.176,29.41 C48.371,29.332 47.66,29.211 47.051,29.055 L47.051,11.52 C47.66,11.344 48.371,11.219 49.176,11.141 C49.98,11.059 50.75,11.02 51.484,11.02 C52.957,11.02 54.304,11.215 55.527,11.598 C56.754,11.984 57.808,12.563 58.691,13.332 C59.574,14.102 60.261,15.063 60.75,16.219 C61.242,17.375 61.488,18.723 61.488,20.262 Z M48.836,27.793 C48.937,27.813 49.207,27.848 49.636,27.898 C50.062,27.953 50.75,27.981 51.695,27.981 C53.008,27.981 54.156,27.801 55.133,27.441 C56.113,27.082 56.937,26.57 57.601,25.906 C58.265,25.238 58.765,24.43 59.097,23.477 C59.429,22.524 59.597,21.449 59.597,20.262 C59.597,19.07 59.429,18.004 59.097,17.059 C58.765,16.113 58.265,15.309 57.601,14.645 C56.937,13.981 56.113,13.465 55.133,13.109 C54.156,12.75 53.008,12.57 51.695,12.57 C50.75,12.57 50.062,12.598 49.636,12.648 C49.207,12.699 48.937,12.734 48.836,12.754 L48.836,27.793 Z M68.519,28.137 C69.183,28.137 69.765,28.113 70.261,28.07 C70.761,28.027 71.187,27.969 71.535,27.898 L71.535,23.121 C71.344,23.035 71.039,22.941 70.617,22.848 C70.199,22.75 69.621,22.703 68.886,22.703 C68.465,22.703 68.027,22.734 67.574,22.793 C67.117,22.856 66.699,22.988 66.312,23.188 C65.929,23.391 65.613,23.664 65.367,24.016 C65.121,24.363 65,24.828 65,25.406 C65,25.914 65.082,26.344 65.25,26.691 C65.414,27.043 65.652,27.324 65.957,27.531 C66.265,27.742 66.633,27.895 67.062,27.992 C67.488,28.09 67.976,28.137 68.519,28.137 Z M68.359,15.484 C69.254,15.484 70.008,15.609 70.633,15.863 C71.254,16.117 71.754,16.469 72.14,16.914 C72.523,17.359 72.804,17.891 72.98,18.504 C73.156,19.113 73.242,19.781 73.242,20.496 L73.242,29.055 C73.066,29.106 72.812,29.164 72.48,29.227 C72.148,29.285 71.765,29.352 71.328,29.422 C70.89,29.492 70.402,29.551 69.871,29.594 C69.336,29.637 68.789,29.66 68.23,29.66 C67.511,29.66 66.851,29.578 66.246,29.422 C65.644,29.266 65.117,29.016 64.672,28.676 C64.226,28.332 63.875,27.895 63.621,27.363 C63.367,26.828 63.242,26.176 63.242,25.406 C63.242,24.672 63.383,24.043 63.66,23.516 C63.941,22.992 64.336,22.559 64.844,22.215 C65.351,21.875 65.953,21.625 66.652,21.469 C67.355,21.313 68.117,21.231 68.937,21.231 C69.183,21.231 69.441,21.246 69.711,21.274 C69.984,21.297 70.246,21.332 70.5,21.375 C70.754,21.422 70.972,21.465 71.156,21.508 C71.34,21.551 71.465,21.59 71.535,21.625 L71.535,20.785 C71.535,20.313 71.5,19.856 71.429,19.406 C71.363,18.961 71.207,18.559 70.972,18.199 C70.734,17.84 70.402,17.555 69.976,17.336 C69.547,17.117 68.98,17.008 68.281,17.008 C67.285,17.008 66.539,17.074 66.051,17.215 C65.558,17.356 65.203,17.469 64.972,17.559 L64.738,16.063 C65.035,15.922 65.496,15.789 66.117,15.668 C66.738,15.543 67.484,15.484 68.359,15.484 Z M76.468,29.371 L78.176,29.371 L78.176,15.797 L76.468,15.797 L76.468,29.371 Z M78.566,11.703 C78.566,12.106 78.445,12.426 78.199,12.66 C77.957,12.898 77.656,13.016 77.308,13.016 C76.957,13.016 76.66,12.898 76.414,12.66 C76.172,12.426 76.047,12.106 76.047,11.703 C76.047,11.301 76.172,10.981 76.414,10.746 C76.66,10.508 76.957,10.391 77.308,10.391 C77.656,10.391 77.957,10.508 78.199,10.746 C78.445,10.981 78.566,11.301 78.566,11.703 Z M84.996,29.606 C84.418,29.59 83.914,29.516 83.484,29.383 C83.058,29.25 82.699,29.051 82.41,28.777 C82.121,28.508 81.902,28.156 81.754,27.731 C81.605,27.301 81.531,26.762 81.531,26.113 L81.531,9.316 L83.234,9 L83.234,26.063 C83.234,26.481 83.277,26.82 83.355,27.074 C83.433,27.328 83.551,27.527 83.707,27.676 C83.867,27.824 84.07,27.934 84.324,28.004 C84.578,28.074 84.883,28.137 85.23,28.188 L84.996,29.606 Z M90.82,29.66 C90.242,28.59 89.683,27.481 89.152,26.324 C88.617,25.168 88.121,24 87.656,22.82 C87.191,21.641 86.765,20.457 86.383,19.277 C85.996,18.094 85.664,16.938 85.386,15.797 L87.195,15.797 C87.386,16.637 87.633,17.543 87.929,18.516 C88.23,19.488 88.566,20.488 88.941,21.52 C89.316,22.555 89.734,23.613 90.187,24.699 C90.644,25.781 91.133,26.852 91.66,27.898 C92.043,26.816 92.386,25.793 92.683,24.828 C92.98,23.867 93.254,22.906 93.508,21.953 C93.761,21 94.008,20.024 94.246,19.027 C94.48,18.031 94.73,16.953 94.992,15.797 L96.699,15.797 C96.136,18.336 95.5,20.805 94.781,23.199 C94.066,25.598 93.285,27.793 92.445,29.789 C92.113,30.578 91.773,31.254 91.422,31.824 C91.074,32.395 90.683,32.859 90.254,33.231 C89.824,33.598 89.328,33.867 88.758,34.043 C88.187,34.219 87.519,34.305 86.75,34.305 C86.312,34.305 85.914,34.254 85.554,34.148 C85.195,34.043 84.972,33.965 84.886,33.91 L85.226,32.492 C85.297,32.547 85.496,32.621 85.816,32.715 C86.14,32.813 86.48,32.859 86.828,32.859 C87.32,32.859 87.761,32.809 88.152,32.703 C88.547,32.598 88.902,32.418 89.218,32.164 C89.531,31.91 89.816,31.582 90.07,31.18 C90.324,30.777 90.574,30.27 90.82,29.66 Z M107.742,29.527 C107.445,29.527 107.097,29.516 106.703,29.488 C106.312,29.461 105.91,29.426 105.496,29.383 C105.086,29.34 104.695,29.285 104.328,29.227 C103.961,29.164 103.648,29.098 103.383,29.027 L103.383,11.52 C103.699,11.434 104.051,11.359 104.433,11.297 C104.82,11.234 105.218,11.184 105.629,11.141 C106.039,11.094 106.441,11.066 106.836,11.047 C107.23,11.031 107.594,11.02 107.926,11.02 C108.906,11.02 109.836,11.102 110.722,11.258 C111.605,11.414 112.379,11.676 113.043,12.043 C113.711,12.414 114.238,12.898 114.633,13.5 C115.027,14.106 115.222,14.856 115.222,15.746 C115.222,16.727 114.972,17.563 114.476,18.254 C113.976,18.945 113.308,19.422 112.468,19.684 C112.992,19.805 113.472,19.981 113.91,20.207 C114.347,20.438 114.734,20.731 115.066,21.09 C115.398,21.445 115.656,21.883 115.84,22.402 C116.023,22.918 116.117,23.535 116.117,24.25 C116.117,25.965 115.433,27.274 114.066,28.176 C112.703,29.078 110.594,29.527 107.742,29.527 Z M105.168,20.656 L105.168,27.82 C105.433,27.856 105.824,27.895 106.351,27.938 C106.875,27.984 107.41,28.004 107.953,28.004 C108.758,28.004 109.539,27.953 110.301,27.848 C111.062,27.742 111.73,27.551 112.308,27.27 C112.886,26.988 113.351,26.606 113.699,26.113 C114.051,25.625 114.226,24.996 114.226,24.227 C114.226,23.524 114.101,22.941 113.859,22.481 C113.613,22.016 113.261,21.648 112.808,21.375 C112.351,21.106 111.797,20.918 111.14,20.813 C110.484,20.707 109.754,20.656 108.949,20.656 L105.168,20.656 Z M105.168,19.133 L108.633,19.133 C109.281,19.133 109.894,19.086 110.472,18.988 C111.051,18.891 111.551,18.715 111.98,18.465 C112.41,18.211 112.746,17.867 112.992,17.438 C113.238,17.012 113.359,16.465 113.359,15.797 C113.359,15.203 113.226,14.699 112.965,14.289 C112.703,13.879 112.332,13.543 111.851,13.277 C111.367,13.016 110.797,12.828 110.129,12.715 C109.465,12.602 108.73,12.543 107.926,12.543 C107.277,12.543 106.73,12.563 106.285,12.598 C105.84,12.633 105.468,12.676 105.168,12.727 L105.168,19.133 Z M123.304,15.535 C123.863,15.535 124.394,15.578 124.89,15.668 C125.39,15.754 125.738,15.844 125.929,15.93 L125.59,17.398 C125.449,17.328 125.164,17.254 124.734,17.176 C124.304,17.098 123.742,17.059 123.043,17.059 C122.308,17.059 121.715,17.109 121.269,17.215 C120.824,17.32 120.531,17.41 120.39,17.481 L120.39,29.371 L118.683,29.371 L118.683,16.43 C119.121,16.234 119.726,16.039 120.496,15.84 C121.265,15.637 122.203,15.535 123.304,15.535 Z M127.367,29.371 L129.074,29.371 L129.074,15.797 L127.367,15.797 L127.367,29.371 Z M129.468,11.703 C129.468,12.106 129.347,12.426 129.101,12.66 C128.855,12.898 128.558,13.016 128.211,13.016 C127.859,13.016 127.562,12.898 127.316,12.66 C127.07,12.426 126.949,12.106 126.949,11.703 C126.949,11.301 127.07,10.981 127.316,10.746 C127.562,10.508 127.859,10.391 128.211,10.391 C128.558,10.391 128.855,10.508 129.101,10.746 C129.347,10.981 129.468,11.301 129.468,11.703 Z M131.644,22.57 C131.644,21.383 131.816,20.344 132.156,19.461 C132.496,18.578 132.941,17.836 133.496,17.242 C134.047,16.648 134.676,16.207 135.383,15.918 C136.094,15.629 136.824,15.484 137.578,15.484 C139.238,15.484 140.566,16.027 141.554,17.109 C142.543,18.195 143.035,19.867 143.035,22.125 C143.035,22.266 143.031,22.406 143.023,22.543 C143.015,22.684 143,22.816 142.984,22.938 L133.457,22.938 C133.508,24.602 133.918,25.879 134.687,26.77 C135.457,27.664 136.683,28.109 138.363,28.109 C139.293,28.109 140.027,28.024 140.57,27.848 C141.113,27.672 141.504,27.524 141.75,27.402 L142.066,28.871 C141.82,29.012 141.359,29.176 140.687,29.371 C140.011,29.563 139.222,29.66 138.312,29.66 C137.121,29.66 136.105,29.484 135.265,29.133 C134.426,28.785 133.734,28.293 133.191,27.664 C132.648,27.035 132.258,26.285 132.011,25.418 C131.765,24.555 131.644,23.606 131.644,22.57 Z M141.277,21.496 C141.242,20.078 140.91,18.977 140.281,18.188 C139.648,17.398 138.758,17.008 137.601,17.008 C136.988,17.008 136.441,17.129 135.961,17.375 C135.48,17.617 135.062,17.945 134.703,18.359 C134.344,18.77 134.062,19.246 133.863,19.789 C133.66,20.332 133.543,20.898 133.508,21.496 L141.277,21.496 Z M150.699,9 C151.433,9 152.031,9.059 152.496,9.172 C152.961,9.285 153.261,9.387 153.402,9.473 L153.058,10.941 C152.867,10.856 152.582,10.762 152.207,10.668 C151.832,10.57 151.355,10.524 150.777,10.524 C149.57,10.524 148.707,10.828 148.191,11.441 C147.676,12.055 147.418,13.035 147.418,14.383 L147.418,15.797 L152.875,15.797 L152.875,17.242 L147.418,17.242 L147.418,29.371 L145.711,29.371 L145.711,14.328 C145.711,12.563 146.117,11.231 146.929,10.34 C147.746,9.445 149,9 150.699,9 Z" id="Fill-1"></path>
        </g>
    </g>
</svg>